<svg xmlns="http://www.w3.org/2000/svg" xmlns:xlink="http://www.w3.org/1999/xlink" width="500" zoomAndPan="magnify" viewBox="0 0 375 374.999991" height="500" preserveAspectRatio="xMidYMid meet" version="1.0"><defs><clipPath id="226df9bd22"><path d="M 15.066406 28.234375 L 359 28.234375 L 359 345 L 15.066406 345 Z M 15.066406 28.234375 " clip-rule="nonzero"/></clipPath></defs><g clip-path="url(#226df9bd22)"><path fill="#090203" d="M 356.851562 173.445312 C 355.171875 168.617188 351.605469 164.769531 347.757812 161.621094 C 339.996094 155.953125 329.785156 153.996094 320.34375 155.675781 C 308.523438 158.125 300.269531 168.335938 295.585938 178.902344 C 288.660156 175.332031 281.320312 172.535156 273.554688 171.414062 C 274.464844 167.148438 275.582031 162.878906 275.863281 158.472656 C 282.648438 158.613281 289.5 158.332031 296.285156 158.753906 C 297.683594 158.960938 299.082031 158.472656 300.203125 157.632812 C 300.410156 155.675781 298.3125 154.695312 296.773438 154.277344 C 290.621094 152.667969 284.253906 152.875 277.960938 153.226562 C 284.957031 144.691406 287.613281 133.566406 289.429688 122.933594 C 291.597656 113.628906 291.597656 103.976562 291.667969 94.460938 C 292.019531 81.308594 290.128906 68.226562 288.730469 55.214844 C 288.59375 53.675781 287.824219 52.066406 286.214844 51.71875 C 282.855469 51.296875 279.359375 51.578125 276.28125 52.976562 C 267.191406 55.914062 258.730469 60.460938 250.195312 64.589844 C 242.574219 68.367188 235.230469 72.636719 228.234375 77.460938 C 219.492188 72.984375 210.472656 69.207031 200.960938 67.179688 C 187.671875 64.449219 173.824219 63.960938 160.46875 66.480469 L 156.269531 66.96875 C 152.914062 67.25 149.695312 68.648438 146.480469 69.558594 C 139.90625 61.441406 130.535156 56.335938 122.210938 50.25 C 114.796875 45.070312 107.175781 40.175781 99.832031 34.929688 C 96.40625 32.96875 93.46875 30.101562 89.621094 29.050781 C 87.03125 28.28125 84.445312 29.890625 82.976562 32.058594 C 79.96875 35.765625 78.78125 40.523438 77.382812 45.070312 C 74.515625 55.496094 73.117188 66.269531 73.253906 77.042969 C 73.675781 89.496094 73.464844 102.71875 79.550781 113.980469 C 74.375 122.164062 71.226562 131.609375 69.480469 141.125 C 61.574219 139.234375 53.671875 137.347656 45.558594 136.925781 C 43.953125 136.855469 41.644531 137.136719 41.292969 139.164062 C 41.574219 140.355469 42.972656 140.492188 43.882812 140.632812 C 52.273438 141.683594 60.527344 143.503906 68.640625 145.949219 C 67.449219 150.496094 68.5 155.324219 69.058594 159.871094 C 69.410156 162.808594 70.109375 165.609375 70.949219 168.476562 C 59.96875 169.175781 49.335938 172.113281 39.054688 175.890625 C 32.34375 178.691406 25.628906 181.628906 19.683594 185.964844 C 17.796875 187.367188 15.066406 189.253906 15.835938 191.984375 C 16.464844 194.011719 18.914062 192.890625 20.171875 192.121094 C 31.222656 184.496094 43.953125 179.878906 56.679688 175.960938 C 61.925781 174.632812 67.03125 172.746094 72.484375 172.324219 C 73.886719 176.800781 75.703125 181.210938 78.082031 185.265625 L 81.019531 189.183594 C 88.570312 201.707031 100.042969 211.710938 112.980469 218.425781 C 114.796875 219.335938 116.40625 221.015625 118.503906 220.734375 C 114.726562 228.570312 111.371094 236.683594 109.414062 245.148438 C 108.085938 251.726562 106.40625 258.300781 106.546875 265.019531 C 106.40625 270.265625 107.316406 275.371094 108.292969 280.480469 C 110.183594 288.875 113.050781 297.339844 118.644531 304.054688 C 112.070312 308.253906 108.785156 318.257812 113.539062 324.972656 C 116.828125 329.167969 122.140625 330.917969 127.035156 332.386719 C 130.742188 333.085938 134.660156 333.4375 138.296875 332.316406 C 141.375 338.125 147.808594 341.902344 154.382812 341.621094 C 159.417969 341.972656 164.664062 339.941406 167.808594 335.957031 C 169.769531 339.3125 172.777344 342.113281 176.484375 343.511719 C 185.714844 346.9375 196.066406 343.511719 203.476562 337.632812 C 209.214844 341.972656 237.257812 343.789062 244.113281 342.949219 C 250.964844 342.113281 257.820312 340.640625 264.042969 337.5625 C 273.414062 333.714844 278.871094 324.550781 286.914062 318.816406 C 300.410156 318.957031 314.1875 314.128906 324.121094 304.824219 C 331.253906 297.96875 337.339844 289.785156 340.625 280.410156 C 344.820312 269.84375 344.261719 257.8125 340.90625 247.109375 C 339.15625 239.972656 336.5 233.117188 335.378906 225.84375 C 334.121094 219.964844 333.703125 212.550781 338.667969 208.28125 C 343.980469 204.226562 350.277344 201.007812 353.84375 195.128906 C 357.621094 188.765625 360.066406 180.507812 356.851562 173.445312 Z M 308.105469 265.15625 C 307.476562 268.515625 306.007812 271.664062 303.976562 274.394531 C 302.929688 275.722656 301.808594 277.050781 300.480469 278.101562 C 299.640625 278.800781 299.503906 279.078125 299.082031 278.101562 C 298.664062 277.261719 298.734375 275.863281 298.59375 274.882812 C 297.265625 266.695312 295.796875 258.582031 293.835938 250.535156 C 292.367188 244.519531 290.691406 238.574219 288.660156 232.699219 C 283.417969 217.65625 275.792969 203.246094 264.742188 191.703125 C 267.960938 186.734375 270.476562 181.277344 272.226562 175.613281 C 277.472656 176.453125 282.71875 177.851562 287.683594 179.738281 C 289.710938 180.507812 291.667969 181.347656 293.558594 182.257812 C 291.949219 187.644531 290.480469 193.101562 290.269531 198.699219 C 289.921875 208.074219 292.996094 217.238281 296.632812 225.84375 C 300.269531 234.445312 304.609375 242.839844 306.984375 251.9375 C 308.175781 256.273438 308.875 260.75 308.105469 265.15625 Z M 308.105469 265.15625 " fill-opacity="1" fill-rule="nonzero"/></g><path fill="#fef6e3" d="M 136.828125 327.699219 C 134.871094 323.433594 133.679688 318.816406 132.910156 314.199219 C 132.910156 314.199219 131.792969 308.113281 131.441406 307.273438 C 129.695312 307.34375 127.945312 307.34375 126.269531 307.550781 C 122.632812 307.972656 119.34375 310 117.59375 313.289062 C 116.757812 314.898438 116.335938 316.71875 116.757812 318.675781 C 116.6875 321.753906 121.652344 327.699219 136.828125 327.699219 Z M 351.1875 174.773438 C 348.738281 169.667969 344.402344 165.539062 339.085938 163.578125 C 331.601562 160.152344 322.371094 159.664062 315.167969 164.070312 C 308.453125 167.847656 303.90625 174.5625 300.832031 181.417969 C 304.398438 184.425781 308.875 186.804688 311.882812 190.582031 C 313.839844 193.101562 316.707031 194.921875 317.335938 198.277344 C 315.65625 198.417969 314.679688 196.808594 313.417969 195.96875 C 308.875 191.632812 303.417969 188.414062 298.59375 184.496094 C 298.101562 187.015625 296.914062 189.394531 296.496094 191.914062 C 294.605469 201.007812 296.632812 210.453125 300.203125 218.917969 C 304.957031 232.277344 312.582031 244.871094 314.1875 259.210938 C 314.539062 264.457031 313.910156 270.125 310.691406 274.53125 C 307.894531 279.007812 304.398438 283.765625 299.363281 285.726562 C 299.152344 292.652344 297.894531 299.648438 295.234375 306.011719 C 294.464844 308.253906 293.835938 310.628906 292.296875 312.449219 C 294.746094 312.519531 297.195312 311.960938 299.570312 311.398438 C 309.503906 308.390625 319.15625 303.003906 325.449219 294.609375 C 326.988281 292.511719 328.875 290.691406 330.203125 288.382812 C 330.484375 287.894531 330.414062 287.125 329.855469 286.914062 C 323.910156 281.386719 319.855469 281.320312 318.664062 279.5 C 323.140625 279.710938 327.265625 282.15625 330.203125 285.515625 C 330.695312 286.074219 331.671875 285.9375 331.953125 285.234375 C 333.210938 282.226562 334.679688 279.289062 335.730469 276.210938 C 336.5 274.042969 335.378906 271.59375 333.28125 270.683594 C 331.601562 269.984375 329.855469 269.285156 328.246094 268.445312 C 330.972656 267.257812 335.171875 269.285156 335.800781 269.914062 C 336.289062 270.476562 337.199219 270.125 337.339844 269.425781 C 339.644531 253.894531 331.253906 239.34375 329.015625 224.234375 C 328.875 218.285156 328.597656 211.710938 332.023438 206.535156 C 334.261719 203.59375 337.476562 201.566406 340.625 199.609375 C 344.472656 196.667969 348.597656 193.523438 350.484375 188.835938 C 352.445312 184.496094 353.285156 179.25 351.1875 174.773438 Z M 307.824219 290.273438 C 313.140625 291.53125 315.796875 294.820312 316.007812 299.367188 C 311.949219 294.820312 310.621094 293.5625 307.824219 290.273438 Z M 292.367188 272.292969 C 288.800781 244.449219 278.242188 217.515625 261.804688 194.78125 C 259.917969 197.160156 258.097656 199.539062 256.210938 201.988281 C 260.40625 203.664062 266.351562 209.050781 265.09375 211.289062 C 262.15625 208.074219 258.589844 205.414062 254.671875 203.527344 C 240.054688 217.238281 221.171875 226.332031 201.378906 229.199219 C 200.332031 229.339844 199.140625 228.921875 198.582031 227.941406 C 197.183594 225.773438 200.402344 223.742188 202.917969 223.113281 C 216.558594 219.824219 229.914062 215 241.453125 207.023438 C 252.992188 199.117188 262.503906 188.273438 266.839844 174.914062 C 258.796875 172.113281 250.894531 173.933594 243.621094 170.714844 C 251.664062 169.246094 259.988281 168.964844 268.03125 170.367188 C 268.800781 166.308594 269.5 162.601562 270.269531 158.542969 C 260.757812 160.570312 251.105469 161.691406 241.382812 161.832031 C 250.335938 157.214844 260.199219 154.34375 270.199219 153.367188 C 269.917969 148.820312 269.570312 144.203125 269.289062 139.65625 C 272.644531 141.472656 274.746094 145.460938 274.253906 149.238281 C 288.800781 122.726562 286.984375 90.753906 283.625 60.53125 C 283.417969 58.363281 281.039062 57.035156 279.082031 58.015625 C 262.785156 65.710938 246.488281 73.335938 230.195312 81.03125 C 229.074219 81.589844 227.886719 82.148438 226.628906 82.148438 C 225.019531 82.21875 223.550781 81.519531 222.152344 80.890625 C 193.828125 68.019531 160.1875 67.457031 131.441406 79.351562 C 133.402344 75.292969 137.527344 72.425781 141.933594 71.867188 C 125.21875 58.921875 107.875 46.679688 90.039062 35.277344 C 89.621094 34.996094 89.132812 34.789062 88.640625 34.648438 C 86.265625 34.160156 85.285156 36.257812 84.726562 38.007812 C 77.382812 60.324219 76.683594 84.808594 82.765625 107.472656 C 86.332031 105.375 87.871094 104.046875 89.269531 106.632812 C 90.601562 109.082031 84.863281 113.910156 84.445312 114.679688 C 79.550781 123.285156 76.121094 132.730469 74.445312 142.523438 C 82.695312 144.480469 90.601562 147.980469 97.664062 152.804688 C 89.339844 152.527344 82.136719 148.328125 73.605469 146.859375 C 73.183594 153.996094 74.164062 160.78125 76.332031 167.636719 C 83.746094 167.917969 90.25 167.078125 95.914062 170.925781 C 89.902344 171.136719 83.816406 171.273438 77.800781 171.484375 C 83.535156 188.695312 97.175781 202.476562 112.980469 211.289062 C 124.519531 217.726562 137.246094 221.785156 150.257812 224.511719 C 152.914062 225.074219 152.496094 228.988281 149.765625 228.988281 C 140.535156 228.921875 131.304688 226.679688 123.191406 222.34375 C 122.5625 224.09375 121.863281 225.773438 121.230469 227.519531 C 125.359375 229.480469 129.136719 232 132.492188 235.078125 C 128.15625 234.65625 123.890625 233.1875 120.253906 230.738281 C 120.324219 230.808594 116.6875 239.273438 116.40625 240.113281 C 115.359375 243.402344 114.449219 246.757812 113.890625 250.117188 C 112.699219 256.832031 112.351562 263.757812 112.980469 270.542969 C 113.609375 277.539062 115.21875 284.535156 117.734375 291.113281 C 118.996094 294.332031 120.394531 297.757812 122.28125 300.625 C 123.050781 301.816406 123.75 301.886719 125.078125 301.886719 C 127.035156 301.886719 128.996094 301.957031 131.023438 302.027344 C 128.785156 292.441406 127.738281 282.648438 127.945312 272.785156 C 127.945312 271.175781 129.34375 269.914062 130.953125 270.195312 C 132.421875 270.476562 132.703125 271.875 132.910156 273.0625 C 135.011719 286.496094 137.109375 299.925781 139.207031 313.429688 C 140.046875 318.816406 140.953125 324.34375 143.890625 328.960938 C 146.828125 333.578125 152.355469 336.933594 157.667969 335.675781 C 166.132812 333.648438 168.019531 322.59375 168.160156 313.847656 C 168.371094 299.648438 168.578125 285.445312 168.71875 271.175781 C 168.71875 269.636719 169.910156 268.234375 171.445312 268.097656 C 173.964844 267.816406 174.734375 271.175781 174.59375 273.621094 C 173.894531 290.902344 173.195312 308.183594 172.496094 325.460938 C 172.425781 327.839844 172.285156 330.21875 173.195312 332.386719 C 174.804688 336.445312 179.558594 338.613281 183.894531 338.542969 C 188.300781 338.472656 192.429688 336.585938 196.34375 334.695312 C 197.953125 333.925781 199.5625 333.015625 200.402344 331.476562 C 201.449219 329.519531 200.960938 327.210938 201.171875 324.972656 C 201.660156 320.003906 205.855469 316.367188 208.652344 312.238281 C 212.5 306.714844 213.96875 299.925781 215.367188 293.351562 C 217.1875 284.957031 218.933594 276.632812 220.753906 268.234375 C 220.894531 267.464844 221.453125 266.765625 222.152344 266.417969 C 224.320312 265.507812 225.578125 269.074219 225.230469 271.523438 C 223.621094 284.328125 220.683594 296.988281 216.417969 309.230469 C 227.046875 309.511719 237.609375 311.960938 247.328125 316.296875 C 247.820312 316.507812 248.238281 316.855469 248.519531 317.347656 C 249.847656 319.585938 246.070312 321.265625 243.484375 320.914062 C 238.027344 320.074219 232.921875 317.765625 227.535156 316.4375 C 222.152344 315.109375 216.136719 314.898438 211.519531 317.90625 C 206.90625 320.914062 204.878906 328.121094 208.652344 332.175781 C 211.101562 334.835938 215.089844 335.324219 218.726562 335.675781 C 232.574219 337.003906 247.121094 338.265625 259.707031 332.386719 C 266.351562 329.308594 271.945312 324.480469 277.261719 319.515625 C 279.359375 317.554688 281.457031 315.527344 283.417969 313.359375 C 284.957031 311.679688 286.355469 309.859375 287.542969 307.902344 C 293.90625 297.546875 293.90625 284.464844 292.367188 272.292969 Z M 243.621094 94.882812 C 249.148438 86.277344 260.757812 79.5625 274.675781 76.902344 C 276.003906 76.621094 277.332031 77.53125 277.542969 78.929688 C 277.75 80.261719 276.773438 81.449219 275.515625 81.730469 C 263.902344 83.96875 254.183594 89.214844 249.007812 95.792969 C 257.539062 103.066406 263.902344 112.230469 267.960938 123.074219 C 268.378906 124.265625 267.890625 125.59375 266.839844 126.152344 C 266.492188 126.363281 266.070312 126.433594 265.722656 126.433594 C 264.742188 126.433594 263.835938 125.804688 263.414062 124.824219 C 259.429688 114.121094 252.992188 105.164062 244.25 98.167969 C 243.203125 97.332031 242.921875 95.929688 243.621094 94.882812 Z M 205.644531 147.351562 C 207.253906 141.125 210.820312 134.269531 217.394531 132.167969 C 223.410156 130.28125 229.773438 134.546875 232.222656 139.933594 C 234.320312 143.921875 234.25 148.679688 233.691406 153.015625 C 233.132812 158.332031 231.105469 163.371094 228.515625 167.988281 C 225.859375 172.042969 221.101562 175.824219 215.925781 174.773438 C 211.871094 174.492188 208.863281 171.34375 206.765625 168.195312 C 203.128906 161.902344 203.898438 154.136719 205.644531 147.351562 Z M 98.992188 97.75 C 98.503906 98.308594 97.804688 98.589844 97.105469 98.589844 C 96.542969 98.589844 95.984375 98.378906 95.566406 98.03125 C 94.515625 97.191406 94.375 95.652344 95.285156 94.601562 C 96.964844 92.574219 103.117188 85.785156 114.867188 78.652344 C 111.371094 70.535156 102.769531 62.421875 92.277344 57.453125 C 91.089844 56.894531 90.53125 55.425781 91.089844 54.234375 C 91.648438 53.046875 93.117188 52.488281 94.304688 53.046875 C 106.683594 58.851562 116.828125 69.066406 120.113281 78.929688 C 120.464844 80.050781 120.042969 81.238281 118.996094 81.800781 C 109.34375 87.464844 102.347656 93.761719 98.992188 97.75 Z M 132.910156 158.054688 C 130.464844 161.972656 126.6875 165.75 121.792969 165.820312 C 116.6875 166.097656 112.421875 162.109375 110.390625 157.773438 C 107.035156 151.6875 107.105469 144.339844 108.714844 137.765625 C 110.253906 131.46875 114.308594 124.964844 120.742188 122.863281 C 124.101562 122.09375 127.875 122.164062 130.8125 124.054688 C 134.378906 126.082031 136.546875 129.929688 137.457031 133.847656 C 139.277344 142.101562 137.246094 150.917969 132.910156 158.054688 Z M 186.902344 172.464844 C 186.273438 177.292969 181.167969 180.160156 176.550781 180.019531 C 171.445312 180.300781 167.042969 176.871094 164.382812 172.8125 C 161.027344 175.542969 157.320312 178.691406 152.632812 178.339844 C 147.109375 178.410156 142.703125 171.976562 145.011719 166.867188 C 145.640625 165.328125 147.808594 164.910156 149.066406 165.886719 C 149.976562 166.9375 149.558594 168.40625 149.558594 169.667969 C 149.417969 171.34375 151.304688 172.394531 152.773438 172.394531 C 156.691406 172.746094 159.90625 169.597656 161.445312 166.238281 C 159.277344 164.839844 157.601562 162.671875 156.832031 160.222656 C 155.78125 157.144531 158.089844 153.507812 161.304688 153.226562 C 165.710938 152.597656 171.027344 153.855469 173.546875 157.914062 C 175.574219 162.039062 172.496094 166.308594 169.140625 168.546875 C 170.328125 171.695312 173.265625 173.933594 176.550781 174.421875 C 178.71875 174.703125 180.957031 173.234375 181.589844 171.207031 C 181.726562 169.527344 180.46875 167.636719 181.867188 166.167969 C 185.503906 165.1875 187.601562 169.386719 186.902344 172.464844 Z M 254.742188 208.351562 C 257.75 208.210938 260.40625 211.429688 260.40625 214.230469 C 257.890625 213.109375 256.628906 210.242188 254.742188 208.351562 Z M 132.773438 136.996094 C 132.773438 140.914062 130.953125 144.132812 128.644531 144.132812 C 126.40625 144.132812 124.519531 140.914062 124.519531 136.996094 C 124.519531 133.078125 126.335938 129.859375 128.644531 129.859375 C 130.882812 129.859375 132.773438 133.078125 132.773438 136.996094 Z M 224.738281 139.09375 C 222.5 139.09375 220.613281 142.3125 220.613281 146.230469 C 220.613281 150.148438 222.429688 153.367188 224.738281 153.367188 C 226.976562 153.367188 228.867188 150.148438 228.867188 146.230469 C 228.867188 142.3125 227.046875 139.09375 224.738281 139.09375 Z M 224.738281 139.09375 " fill-opacity="1" fill-rule="nonzero"/><path fill="#e98470" d="M 94.726562 96.210938 C 90.808594 83.898438 89.410156 71.097656 92.277344 57.453125 C 102.769531 62.351562 111.371094 70.535156 114.867188 78.652344 C 103.1875 85.785156 96.964844 92.644531 95.285156 94.601562 C 94.867188 95.089844 94.65625 95.652344 94.726562 96.210938 Z M 275.582031 81.660156 C 263.902344 83.898438 254.183594 89.144531 248.9375 95.792969 C 257.539062 103.136719 263.902344 112.300781 267.890625 123.074219 C 273.90625 111.25 277.542969 97.191406 277.542969 79.769531 C 277.332031 80.679688 276.632812 81.449219 275.582031 81.660156 Z M 275.582031 81.660156 " fill-opacity="1" fill-rule="nonzero"/><path fill="#c59c86" d="M 174.175781 70.816406 C 180.257812 70.746094 186.414062 71.234375 192.429688 72.144531 C 192.5 74.875 192.148438 77.882812 191.449219 80.960938 C 188.929688 91.382812 179.351562 99.917969 174.105469 98.589844 C 168.859375 97.332031 167.808594 87.1875 170.328125 76.832031 C 170.816406 74.875 171.515625 72.285156 174.175781 70.816406 Z M 148.789062 73.824219 C 147.808594 81.730469 147.878906 88.445312 152.003906 89.425781 C 156.761719 90.542969 164.523438 83.757812 166.761719 74.3125 C 167.042969 73.265625 167.25 72.144531 167.390625 71.097656 C 161.097656 71.515625 154.871094 72.425781 148.789062 73.824219 Z M 199.492188 75.433594 C 196.972656 85.855469 195.855469 94.953125 201.171875 96.210938 C 206.414062 97.46875 216.066406 90.402344 218.585938 79.980469 C 218.65625 79.769531 218.65625 79.5625 218.726562 79.351562 C 212.710938 76.832031 206.414062 74.945312 200.050781 73.472656 C 199.773438 74.175781 199.632812 74.804688 199.492188 75.433594 Z M 257.609375 211.851562 C 259.21875 215.488281 266.839844 218.148438 274.324219 216.328125 C 274.535156 216.257812 274.746094 216.1875 274.953125 216.1875 C 272.644531 211.640625 270.128906 207.234375 267.402344 202.964844 C 265.304688 203.734375 263.34375 204.574219 261.734375 205.484375 C 264.183594 207.582031 265.933594 209.960938 265.164062 211.289062 C 263.554688 209.542969 261.804688 208.003906 259.917969 206.671875 C 258.796875 207.511719 257.960938 208.351562 257.609375 209.261719 C 259.289062 210.382812 260.40625 212.410156 260.476562 214.300781 C 259.289062 213.738281 258.378906 212.828125 257.609375 211.851562 Z M 278.800781 237.246094 C 280.480469 236.824219 282.019531 236.335938 283.417969 235.707031 C 281.386719 230.25 279.152344 224.863281 276.5625 219.617188 C 275.515625 219.617188 274.535156 219.824219 273.695312 220.035156 C 265.023438 222.203125 257.890625 226.820312 259.007812 231.230469 C 260.128906 235.636719 270.128906 239.414062 278.800781 237.246094 Z M 289.710938 257.042969 C 288.523438 251.726562 287.054688 246.410156 285.375 241.234375 C 276.980469 243.332031 270.199219 245.988281 271.246094 250.328125 C 272.296875 254.664062 281.109375 259.070312 289.710938 257.042969 Z M 335.660156 276.140625 C 336.429688 273.972656 335.308594 271.523438 333.210938 270.613281 C 331.535156 269.914062 329.785156 269.214844 328.175781 268.375 C 328.457031 268.234375 328.664062 268.167969 328.945312 268.167969 C 323.210938 266.558594 316.988281 266.277344 313.910156 266.207031 C 313.417969 269.144531 312.441406 272.015625 310.621094 274.460938 C 310.273438 274.953125 309.992188 275.511719 309.644531 276 C 312.371094 276.632812 315.519531 277.890625 318.59375 279.429688 C 323.070312 279.640625 327.195312 282.085938 330.132812 285.445312 C 330.625 286.003906 331.601562 285.867188 331.882812 285.167969 C 333.140625 282.15625 334.609375 279.21875 335.660156 276.140625 Z M 316.007812 300.558594 C 315.9375 300.066406 315.867188 299.507812 315.65625 298.949219 C 311.8125 294.75 310.550781 293.421875 307.824219 290.273438 C 308.523438 290.414062 309.152344 290.621094 309.78125 290.902344 C 307.125 288.246094 304.1875 285.796875 302.089844 284.1875 C 301.179688 284.746094 300.269531 285.234375 299.292969 285.65625 C 299.082031 292.582031 297.824219 299.578125 295.164062 305.945312 C 294.398438 308.183594 293.765625 310.5625 292.230469 312.378906 C 294.675781 312.449219 297.125 311.890625 299.503906 311.332031 C 305.375 309.582031 311.179688 306.921875 316.21875 303.355469 C 316.21875 302.515625 316.078125 301.605469 316.007812 300.558594 Z M 316.007812 300.558594 " fill-opacity="1" fill-rule="nonzero"/><path fill="#dbcbab" d="M 201.03125 325.113281 C 200.820312 327.28125 201.308594 329.660156 200.261719 331.617188 C 199.421875 333.15625 197.742188 334.066406 196.203125 334.835938 C 192.289062 336.792969 188.164062 338.613281 183.757812 338.683594 C 179.351562 338.753906 174.664062 336.585938 173.054688 332.527344 C 172.148438 330.359375 172.285156 327.910156 172.355469 325.601562 C 172.566406 320.984375 172.707031 316.367188 172.914062 311.75 C 172.914062 311.75 175.222656 324.0625 188.230469 323.644531 C 198.371094 323.292969 204.246094 317.765625 206.347656 315.316406 C 203.898438 318.324219 201.378906 321.335938 201.03125 325.113281 Z M 157.460938 335.816406 C 165.921875 333.785156 167.808594 322.734375 167.949219 313.988281 C 167.949219 313.007812 167.949219 312.03125 168.019531 311.121094 C 168.019531 311.121094 165.710938 320.355469 154.242188 320.632812 C 142.773438 320.914062 138.648438 311.121094 138.648438 311.121094 C 138.785156 311.960938 138.925781 312.730469 138.996094 313.570312 C 139.835938 318.957031 140.746094 324.480469 143.683594 329.097656 C 146.621094 333.648438 152.144531 337.074219 157.460938 335.816406 Z M 292.929688 277.539062 C 287.960938 320.214844 251.457031 328.261719 232.433594 330.988281 C 213.339844 333.785156 209.492188 319.726562 209.492188 319.726562 C 206.484375 323.222656 205.578125 328.75 208.722656 332.109375 C 211.171875 334.765625 215.15625 335.253906 218.792969 335.605469 C 232.640625 336.933594 247.1875 338.195312 259.777344 332.316406 C 266.421875 329.238281 272.015625 324.414062 277.332031 319.445312 C 279.429688 317.488281 281.527344 315.457031 283.488281 313.289062 C 285.023438 311.609375 286.425781 309.792969 287.613281 307.832031 C 292.996094 299.019531 293.765625 288.105469 292.929688 277.539062 Z M 133.609375 317.90625 C 131.722656 318.257812 128.503906 318.605469 125.289062 317.488281 C 120.324219 315.738281 124.449219 307.902344 124.449219 307.902344 C 121.582031 308.671875 118.996094 310.5625 117.59375 313.289062 C 116.757812 314.898438 116.335938 316.71875 116.757812 318.675781 C 116.757812 321.753906 121.652344 327.769531 136.828125 327.769531 C 135.429688 324.550781 134.378906 321.265625 133.609375 317.90625 Z M 117.734375 236.683594 C 117.035156 238.363281 116.40625 239.832031 116.335938 240.183594 C 115.289062 243.472656 114.378906 246.828125 113.820312 250.1875 C 112.628906 256.902344 112.28125 263.828125 112.910156 270.613281 C 113.539062 277.609375 115.148438 284.605469 117.664062 291.183594 C 118.925781 294.402344 120.324219 297.828125 122.210938 300.695312 C 122.980469 301.886719 123.679688 301.957031 125.007812 301.957031 C 126.96875 301.957031 128.925781 302.027344 130.953125 302.097656 C 130.953125 302.097656 121.230469 289.152344 117.804688 271.945312 C 114.308594 254.804688 117.734375 236.683594 117.734375 236.683594 Z M 198.722656 228.082031 C 198.722656 228.011719 198.652344 228.011719 198.652344 227.941406 C 197.253906 225.773438 200.472656 223.742188 202.988281 223.113281 C 216.625 219.824219 229.984375 215 241.523438 207.023438 C 248.9375 201.917969 255.511719 195.621094 260.40625 188.203125 C 254.394531 195.339844 216.347656 227.382812 151.375 219.546875 C 108.851562 214.4375 88.710938 188.625 79.898438 171.414062 C 79.128906 171.414062 78.429688 171.484375 77.660156 171.484375 C 83.394531 188.695312 97.035156 202.476562 112.839844 211.289062 C 124.378906 217.726562 137.109375 221.785156 150.117188 224.511719 C 151.863281 224.863281 152.285156 226.679688 151.65625 227.871094 C 164.242188 229.828125 180.257812 230.667969 198.722656 228.082031 Z M 73.746094 155.605469 C 74.164062 159.664062 75.003906 163.648438 76.332031 167.636719 C 76.960938 167.636719 77.523438 167.707031 78.152344 167.707031 C 74.863281 160.5 73.746094 155.605469 73.746094 155.605469 Z M 86.753906 105.304688 C 76.191406 74.664062 85.496094 38.984375 86.613281 34.929688 C 85.632812 35.558594 85.074219 36.816406 84.726562 38.007812 C 77.382812 60.324219 76.683594 84.808594 82.765625 107.472656 C 84.515625 106.496094 85.773438 105.585938 86.753906 105.304688 Z M 271.109375 140.914062 C 273.414062 143.011719 274.675781 146.160156 274.324219 149.238281 C 288.59375 123.285156 287.125 92.011719 283.90625 62.351562 C 283.90625 62.351562 285.792969 122.515625 271.109375 140.914062 Z M 271.109375 140.914062 " fill-opacity="1" fill-rule="nonzero"/></svg>